REM DIRINDEX 1\5,1\2\6,1\2\7,1\3\8,1\3\9,1\4\10,1\4\11,1\4\12
REM DIRNAME cjc026,folder01,folder02,folder03,folder04,folder05,folder06,folder07,folder08,folder09,folder10,folder11
TITLE ""
FILE "EJE_DB3000_5th_3B_17.mp3" MP3
  TRACK 01 AUDIO
    TITLE "0:"
    INDEX 01 00:00:00
  TRACK 02 AUDIO
    TITLE "10:cjc026_08826"
    INDEX 01 00:00:08
  TRACK 03 AUDIO
    TITLE "0:"
    INDEX 01 00:01:30
  TRACK 04 AUDIO
    TITLE "11:cjc026_08827"
    INDEX 01 00:01:65
  TRACK 05 AUDIO
    TITLE "0:"
    INDEX 01 00:03:23
  TRACK 06 AUDIO
    TITLE "12:cjc026_08828"
    INDEX 01 00:03:58
  TRACK 07 AUDIO
    TITLE "0:"
    INDEX 01 00:05:08
  TRACK 08 AUDIO
    TITLE "10:cjc026_08829"
    INDEX 01 00:05:40
  TRACK 09 AUDIO
    TITLE "0:"
    INDEX 01 00:06:68
  TRACK 10 AUDIO
    TITLE "11:cjc026_08830"
    INDEX 01 00:07:31
  TRACK 11 AUDIO
    TITLE "0:"
    INDEX 01 00:09:05
  TRACK 12 AUDIO
    TITLE "12:cjc026_08831"
    INDEX 01 00:09:40
  TRACK 13 AUDIO
    TITLE "0:"
    INDEX 01 00:10:68
  TRACK 14 AUDIO
    TITLE "10:cjc026_08832"
    INDEX 01 00:11:28
  TRACK 15 AUDIO
    TITLE "0:"
    INDEX 01 00:12:61
  TRACK 16 AUDIO
    TITLE "11:cjc026_08833"
    INDEX 01 00:13:21
  TRACK 17 AUDIO
    TITLE "0:"
    INDEX 01 00:15:14
  TRACK 18 AUDIO
    TITLE "12:cjc026_08834"
    INDEX 01 00:15:49
  TRACK 19 AUDIO
    TITLE "0:"
    INDEX 01 00:17:07
  TRACK 20 AUDIO
    TITLE "10:cjc026_08835"
    INDEX 01 00:17:42
  TRACK 21 AUDIO
    TITLE "0:"
    INDEX 01 00:18:70
  TRACK 22 AUDIO
    TITLE "11:cjc026_08836"
    INDEX 01 00:19:30
  TRACK 23 AUDIO
    TITLE "0:"
    INDEX 01 00:21:47
  TRACK 24 AUDIO
    TITLE "12:cjc026_08837"
    INDEX 01 00:22:10
  TRACK 25 AUDIO
    TITLE "0:"
    INDEX 01 00:23:35
  TRACK 26 AUDIO
    TITLE "10:cjc026_08838"
    INDEX 01 00:23:73
  TRACK 27 AUDIO
    TITLE "0:"
    INDEX 01 00:25:25
  TRACK 28 AUDIO
    TITLE "11:cjc026_08839"
    INDEX 01 00:25:63
  TRACK 29 AUDIO
    TITLE "0:"
    INDEX 01 00:27:29
  TRACK 30 AUDIO
    TITLE "12:cjc026_08840"
    INDEX 01 00:27:67
  TRACK 31 AUDIO
    TITLE "0:"
    INDEX 01 00:29:20
  TRACK 32 AUDIO
    TITLE "10:cjc026_08841"
    INDEX 01 00:29:55
  TRACK 33 AUDIO
    TITLE "0:"
    INDEX 01 00:30:74
  TRACK 34 AUDIO
    TITLE "11:cjc026_08842"
    INDEX 01 00:31:37
  TRACK 35 AUDIO
    TITLE "0:"
    INDEX 01 00:33:14
  TRACK 36 AUDIO
    TITLE "12:cjc026_08843"
    INDEX 01 00:33:54
  TRACK 37 AUDIO
    TITLE "0:"
    INDEX 01 00:34:71
  TRACK 38 AUDIO
    TITLE "10:cjc026_08844"
    INDEX 01 00:35:34
  TRACK 39 AUDIO
    TITLE "0:"
    INDEX 01 00:36:70
  TRACK 40 AUDIO
    TITLE "11:cjc026_08845"
    INDEX 01 00:37:30
  TRACK 41 AUDIO
    TITLE "0:"
    INDEX 01 00:39:15
  TRACK 42 AUDIO
    TITLE "12:cjc026_08846"
    INDEX 01 00:39:53
  TRACK 43 AUDIO
    TITLE "0:"
    INDEX 01 00:41:13
  TRACK 44 AUDIO
    TITLE "10:cjc026_08847"
    INDEX 01 00:41:48
  TRACK 45 AUDIO
    TITLE "0:"
    INDEX 01 00:43:04
  TRACK 46 AUDIO
    TITLE "11:cjc026_08848"
    INDEX 01 00:43:36
  TRACK 47 AUDIO
    TITLE "0:"
    INDEX 01 00:45:13
  TRACK 48 AUDIO
    TITLE "12:cjc026_08849"
    INDEX 01 00:45:48
  TRACK 49 AUDIO
    TITLE "0:"
    INDEX 01 00:47:03
  TRACK 50 AUDIO
    TITLE "10:cjc026_08850"
    INDEX 01 00:47:39
  TRACK 51 AUDIO
    TITLE "0:"
    INDEX 01 00:49:02
  TRACK 52 AUDIO
    TITLE "11:cjc026_08851"
    INDEX 01 00:49:34
  TRACK 53 AUDIO
    TITLE "0:"
    INDEX 01 00:51:14
  TRACK 54 AUDIO
    TITLE "12:cjc026_08852"
    INDEX 01 00:51:46
  TRACK 55 AUDIO
    TITLE "0:"
    INDEX 01 00:53:10
  TRACK 56 AUDIO
    TITLE "10:cjc026_08853"
    INDEX 01 00:53:42
  TRACK 57 AUDIO
    TITLE "0:"
    INDEX 01 00:55:03
  TRACK 58 AUDIO
    TITLE "11:cjc026_08854"
    INDEX 01 00:55:38
  TRACK 59 AUDIO
    TITLE "0:"
    INDEX 01 00:57:23
  TRACK 60 AUDIO
    TITLE "12:cjc026_08855"
    INDEX 01 00:57:58
  TRACK 61 AUDIO
    TITLE "0:"
    INDEX 01 00:59:16
  TRACK 62 AUDIO
    TITLE "10:cjc026_08856"
    INDEX 01 00:59:54
  TRACK 63 AUDIO
    TITLE "0:"
    INDEX 01 01:01:17
  TRACK 64 AUDIO
    TITLE "11:cjc026_08857"
    INDEX 01 01:01:52
  TRACK 65 AUDIO
    TITLE "0:"
    INDEX 01 01:03:29
  TRACK 66 AUDIO
    TITLE "12:cjc026_08858"
    INDEX 01 01:03:64
  TRACK 67 AUDIO
    TITLE "0:"
    INDEX 01 01:05:28
  TRACK 68 AUDIO
    TITLE "10:cjc026_08859"
    INDEX 01 01:05:63
  TRACK 69 AUDIO
    TITLE "0:"
    INDEX 01 01:07:26
  TRACK 70 AUDIO
    TITLE "11:cjc026_08860"
    INDEX 01 01:07:61
  TRACK 71 AUDIO
    TITLE "0:"
    INDEX 01 01:09:22
  TRACK 72 AUDIO
    TITLE "12:cjc026_08861"
    INDEX 01 01:09:57
  TRACK 73 AUDIO
    TITLE "0:"
    INDEX 01 01:11:18
